<svg width="24" height="24" viewBox="0 0 24 24" fill="none" xmlns="http://www.w3.org/2000/svg">
<g id="Ic_card">
<g id="Group 3127">
<path id="Vector" opacity="0.4" d="M23 8.69727V16.9033C23 19.4223 20.954 21.4573 18.435 21.4573H5.565C3.046 21.4573 1 19.4223 1 16.9033V8.69727H23Z" fill="#57704F"/>
<path id="Vector_2" d="M23 7.09306V8.69906H1V7.09306C1 4.57406 3.046 2.53906 5.565 2.53906H18.435C20.954 2.53906 23 4.57406 23 7.09306Z" fill="#57704F"/>
<path id="Vector_3" d="M7.6002 17.773H5.4002C4.9492 17.773 4.5752 17.399 4.5752 16.948C4.5752 16.497 4.9492 16.123 5.4002 16.123H7.6002C8.0512 16.123 8.4252 16.497 8.4252 16.948C8.4252 17.399 8.0512 17.773 7.6002 17.773Z" fill="#57704F"/>
<path id="Vector_4" d="M14.7504 17.773H10.3504C9.89939 17.773 9.52539 17.399 9.52539 16.948C9.52539 16.497 9.89939 16.123 10.3504 16.123H14.7504C15.2014 16.123 15.5754 16.497 15.5754 16.948C15.5754 17.399 15.2014 17.773 14.7504 17.773Z" fill="#57704F"/>
</g>
</g>
</svg>
