<svg width="24" height="24" viewBox="0 0 24 24" fill="none" xmlns="http://www.w3.org/2000/svg">
<g id="Ic_collapse">
<g id="Vector">
<path d="M14.2306 7.69754C14.0569 7.69754 13.8832 7.63375 13.7461 7.49706L11.8901 5.64715L10.0341 7.49706C9.76893 7.76133 9.33007 7.76133 9.06493 7.49706C8.79979 7.23278 8.79979 6.79537 9.06493 6.53109L11.4055 4.1982C11.6706 3.93393 12.1095 3.93393 12.3746 4.1982L14.7152 6.53109C14.9804 6.79537 14.9804 7.23278 14.7152 7.49706C14.5781 7.63375 14.4044 7.69754 14.2306 7.69754Z" fill="#C7B8B1"/>
<path d="M11.8911 14.6963C11.5162 14.6963 11.2054 14.3865 11.2054 14.0129V4.74509C11.2054 4.37146 11.5162 4.06163 11.8911 4.06163C12.2659 4.06163 12.5768 4.37146 12.5768 4.74509V14.0129C12.5768 14.3956 12.2659 14.6963 11.8911 14.6963Z" fill="#C7B8B1"/>
<path d="M12 20C7.29143 20 4 16.7194 4 12.0263C4 11.6526 4.31086 11.3428 4.68571 11.3428C5.06057 11.3428 5.37143 11.6526 5.37143 12.0263C5.37143 15.9174 8.096 18.6331 12 18.6331C15.904 18.6331 18.6286 15.9174 18.6286 12.0263C18.6286 11.6526 18.9394 11.3428 19.3143 11.3428C19.6891 11.3428 20 11.6526 20 12.0263C20 16.7194 16.7086 20 12 20Z" fill="#C7B8B1"/>
</g>
</g>
</svg>
