<svg width="32" height="32" viewBox="0 0 32 32" fill="none" xmlns="http://www.w3.org/2000/svg">
<g id="Ic_calendar">
<g id="Group ">
<path id="Vector" d="M21.5423 6.67183V4.86748C21.5423 4.39326 21.1456 4 20.6673 4C20.1889 4 19.7923 4.39326 19.7923 4.86748V6.60243H12.2089V4.86748C12.2089 4.39326 11.8123 4 11.3339 4C10.8556 4 10.4589 4.39326 10.4589 4.86748V6.67183C7.30893 6.96098 5.78059 8.82317 5.54726 11.5875C5.52393 11.923 5.80393 12.2005 6.13059 12.2005H25.8706C26.2089 12.2005 26.4889 11.9114 26.4539 11.5875C26.2206 8.82317 24.6923 6.96098 21.5423 6.67183Z" fill="#57704F"/>
<path id="Exclude" fill-rule="evenodd" clip-rule="evenodd" d="M26.5 15.0922C26.5 14.456 25.975 13.9355 25.3333 13.9355H6.66667C6.025 13.9355 5.5 14.456 5.5 15.0922V22.2171C5.5 25.687 7.25 28.0002 11.3333 28.0002H20.6667C24.75 28.0002 26.5 25.687 26.5 22.2171V15.0922ZM20.0479 19.9051C19.7471 19.9051 19.4464 19.7778 19.2267 19.5696C19.0185 19.3499 18.8912 19.0492 18.8912 18.7484C18.8912 18.4477 19.0185 18.147 19.2267 17.9272C19.3423 17.8231 19.458 17.7422 19.6083 17.6843C19.8165 17.5918 20.0479 17.5687 20.2792 17.6149C20.3486 17.6265 20.418 17.6496 20.4874 17.6843C20.5568 17.7075 20.6262 17.7422 20.6956 17.7885L20.8691 17.9272C21.0773 18.147 21.2045 18.4477 21.2045 18.7484C21.2045 19.0492 21.0773 19.3499 20.8691 19.5696L20.6956 19.7084C20.6262 19.7547 20.5568 19.7894 20.4874 19.8126C20.418 19.8473 20.3486 19.8704 20.2792 19.882C20.1982 19.8935 20.1173 19.9051 20.0479 19.9051ZM11.1303 19.5689C11.3501 19.7771 11.6508 19.9044 11.9516 19.9044C12.2523 19.9044 12.553 19.7771 12.7728 19.5689C12.981 19.3492 13.1082 19.0484 13.1082 18.7477C13.1082 18.447 12.981 18.1463 12.7728 17.9265C12.6687 17.8224 12.5414 17.7414 12.3911 17.6836C11.9631 17.4985 11.4542 17.6027 11.1303 17.9265C10.9222 18.1463 10.7949 18.447 10.7949 18.7477C10.7949 19.0484 10.9222 19.3492 11.1303 19.5689ZM15.1787 19.5689C15.3985 19.7771 15.6992 19.9044 15.9999 19.9044C16.0718 19.9044 16.1346 19.8952 16.2045 19.8851L16.2313 19.8812C16.3006 19.8697 16.37 19.8465 16.4394 19.8118C16.5088 19.7887 16.5782 19.754 16.6476 19.7077L16.8211 19.5689C17.0293 19.3492 17.1566 19.0484 17.1566 18.7477C17.1566 18.447 17.0293 18.1463 16.8211 17.9265C16.4973 17.6027 15.9884 17.4985 15.5604 17.6836C15.41 17.7414 15.2828 17.8224 15.1787 17.9265C14.9705 18.1463 14.8433 18.447 14.8433 18.7477C14.8433 19.0484 14.9705 19.3492 15.1787 19.5689ZM11.512 23.8605C11.6508 23.9183 11.8012 23.953 11.9516 23.953C12.0235 23.953 12.0863 23.9439 12.1561 23.9338L12.1829 23.9299C12.2523 23.9183 12.3217 23.8952 12.3911 23.8605C12.4605 23.8374 12.5299 23.8026 12.5993 23.7564C12.6378 23.7332 12.6764 23.6998 12.7149 23.6664C12.7342 23.6497 12.7535 23.633 12.7728 23.6176C12.981 23.3978 13.1082 23.0971 13.1082 22.7964C13.1082 22.4957 12.981 22.1949 12.7728 21.9752L12.5993 21.8364C12.5299 21.7901 12.4605 21.7554 12.3911 21.7323C12.3217 21.6976 12.2523 21.6744 12.1829 21.6629C11.9516 21.6166 11.7202 21.6397 11.512 21.7323C11.3617 21.7901 11.246 21.8711 11.1303 21.9752C10.9222 22.1949 10.7949 22.4957 10.7949 22.7964C10.7949 23.0971 10.9222 23.3978 11.1303 23.6176C11.246 23.7217 11.3617 23.8027 11.512 23.8605ZM15.9999 23.9535C15.6992 23.9535 15.3985 23.8263 15.1787 23.6181C14.9705 23.3983 14.8433 23.0976 14.8433 22.7969C14.8433 22.4961 14.9705 22.1954 15.1787 21.9757C15.6067 21.5477 16.3932 21.5477 16.8211 21.9757C17.0293 22.1954 17.1566 22.4961 17.1566 22.7969C17.1566 23.0976 17.0293 23.3983 16.8211 23.6181C16.6014 23.8263 16.3006 23.9535 15.9999 23.9535ZM19.2267 23.6181C19.4464 23.8263 19.7471 23.9535 20.0479 23.9535C20.3486 23.9535 20.6493 23.8263 20.8691 23.6181C21.0773 23.3983 21.2045 23.0976 21.2045 22.7969C21.2045 22.4961 21.0773 22.1954 20.8691 21.9757C20.4411 21.5477 19.6546 21.5477 19.2267 21.9757C19.0185 22.1954 18.8912 22.4961 18.8912 22.7969C18.8912 23.0976 19.0185 23.3983 19.2267 23.6181Z" fill="#57704F"/>
</g>
</g>
</svg>
