<svg width="24" height="24" viewBox="0 0 24 24" fill="none" xmlns="http://www.w3.org/2000/svg">
<g id="Ic_Cards">
<g id="Group">
<path id="Vector" opacity="0.4" d="M19.7 10.0878V18.0324C19.667 21.1991 18.809 21.9991 15.542 21.9991H5.15803C1.83603 21.9991 1 21.1657 1 17.8546V10.0878C1 7.08782 1.693 6.12114 4.3 5.96558C4.564 5.95447 4.85003 5.94336 5.15803 5.94336H15.542C18.864 5.94336 19.7 6.7767 19.7 10.0878Z" fill="#57704F"/>
<path id="Vector_2" d="M23 6.14449V13.9112C23 16.9113 22.307 17.8779 19.7 18.0335V10.089C19.7 6.77783 18.864 5.94449 15.542 5.94449H5.15808C4.85008 5.94449 4.56405 5.9556 4.30005 5.96671C4.33305 2.80001 5.19108 2 8.45808 2H18.842C22.164 2 23 2.83334 23 6.14449Z" fill="#57704F"/>
<g id="Group_2">
<path id="Vector_3" d="M6.45629 19.2878H4.56426C4.11326 19.2878 3.73926 18.91 3.73926 18.4544C3.73926 17.9989 4.11326 17.6211 4.56426 17.6211H6.45629C6.90729 17.6211 7.28129 17.9989 7.28129 18.4544C7.28129 18.91 6.91829 19.2878 6.45629 19.2878Z" fill="#57704F"/>
</g>
<g id="Group_3">
<path id="Vector_4" d="M12.6061 19.2878H8.82207C8.37107 19.2878 7.99707 18.91 7.99707 18.4544C7.99707 17.9989 8.37107 17.6211 8.82207 17.6211H12.6061C13.0571 17.6211 13.4311 17.9989 13.4311 18.4544C13.4311 18.91 13.0681 19.2878 12.6061 19.2878Z" fill="#57704F"/>
</g>
<g id="Group_4">
<path id="Vector_5" d="M19.7 11.8457H1V13.5124H19.7V11.8457Z" fill="#57704F"/>
</g>
</g>
</g>
</svg>
