<svg width="24" height="24" viewBox="0 0 24 24" fill="none" xmlns="http://www.w3.org/2000/svg">
<g id="Ic_Delete">
<path id="Vector" d="M19.5308 9.2627C19.5308 9.2627 18.9544 16.5441 18.6201 19.6113C18.4609 21.0762 17.5724 21.9346 16.1172 21.9616C13.3479 22.0125 10.5754 22.0157 7.80713 21.9562C6.40709 21.927 5.53352 21.0578 5.37748 19.6188C5.041 16.5246 4.46782 9.2627 4.46782 9.2627M21 5.77191H3M17.5306 5.77206C16.6973 5.77206 15.9798 5.17203 15.8163 4.34065L15.5584 3.02599C15.3992 2.41948 14.86 2 14.2454 2H9.75228C9.13771 2 8.59849 2.41948 8.43928 3.02599L8.18134 4.34065C8.01788 5.17203 7.30034 5.77206 6.46711 5.77206" stroke="#E84B51" stroke-width="1.5" stroke-linecap="round" stroke-linejoin="round"/>
</g>
</svg>
