<svg width="24" height="24" viewBox="0 0 24 24" fill="none" xmlns="http://www.w3.org/2000/svg">
<g id="Ic_expand">
<g id="Vector">
<path d="M11.8903 14.6244C11.7166 14.6244 11.5429 14.5611 11.4057 14.4253L9.06514 12.1086C8.8 11.8462 8.8 11.4118 9.06514 11.1493C9.33029 10.8869 9.76914 10.8869 10.0343 11.1493L11.8903 12.9864L13.7463 11.1493C14.0114 10.8869 14.4503 10.8869 14.7154 11.1493C14.9806 11.4118 14.9806 11.8462 14.7154 12.1086L12.3749 14.4253C12.2377 14.5611 12.064 14.6244 11.8903 14.6244Z" fill="#C7B8B1"/>
<path d="M11.8903 14.5611C11.5154 14.5611 11.2046 14.2534 11.2046 13.8824V4.67873C11.2046 4.30769 11.5154 4 11.8903 4C12.2651 4 12.576 4.30769 12.576 4.67873V13.8824C12.576 14.2534 12.2651 14.5611 11.8903 14.5611Z" fill="#C7B8B1"/>
<path d="M12 20C7.29143 20 4 16.7421 4 12.0814C4 11.7104 4.31086 11.4027 4.68571 11.4027C5.06057 11.4027 5.37143 11.7104 5.37143 12.0814C5.37143 15.9457 8.096 18.6425 12 18.6425C15.904 18.6425 18.6286 15.9457 18.6286 12.0814C18.6286 11.7104 18.9394 11.4027 19.3143 11.4027C19.6891 11.4027 20 11.7104 20 12.0814C20 16.7421 16.7086 20 12 20Z" fill="#C7B8B1"/>
</g>
</g>
</svg>
