<svg width="24" height="24" viewBox="0 0 24 24" fill="none" xmlns="http://www.w3.org/2000/svg">
<g id="Ic_Favorite">
<path id="Vector" d="M12 22C11.6828 22 11.3758 21.9585 11.12 21.8653C7.21116 20.5078 1 15.6891 1 8.56995C1 4.943 3.89581 2 7.45674 2C9.18605 2 10.8028 2.68394 12 3.90674C13.1972 2.68394 14.814 2 16.5433 2C20.1042 2 23 4.95337 23 8.56995C23 15.6995 16.7888 20.5078 12.88 21.8653C12.6242 21.9585 12.3172 22 12 22ZM7.45674 3.5544C4.74512 3.5544 2.53488 5.80311 2.53488 8.56995C2.53488 15.6477 9.25767 19.5855 11.6214 20.4041C11.8056 20.4663 12.2047 20.4663 12.3888 20.4041C14.7423 19.5855 21.4753 15.658 21.4753 8.56995C21.4753 5.80311 19.2651 3.5544 16.5535 3.5544C14.9981 3.5544 13.5553 4.29016 12.6242 5.56477C12.3377 5.95855 11.6828 5.95855 11.3963 5.56477C10.4447 4.27979 9.01209 3.5544 7.45674 3.5544Z" fill="#959B95"/>
</g>
</svg>
