<svg width="24" height="24" viewBox="0 0 24 24" fill="none" xmlns="http://www.w3.org/2000/svg">
<g id="Ic_Home">
<path id="Vector" fill-rule="evenodd" clip-rule="evenodd" d="M9.13797 20.7714C9.13797 21.2916 8.81139 21.7363 8.35015 21.9155C8.20975 21.97 8.0569 22 7.89696 22H5.97291C4.05488 22 2.5 20.4607 2.5 18.5618V9.84736C2.50739 9.09967 2.86226 8.39702 3.46203 7.94256L10.0134 2.6853C11.1662 1.77157 12.8049 1.77157 13.9577 2.6853L20.538 7.93303C21.1355 8.38935 21.4898 9.09083 21.5 9.83784V18.5618C21.5 20.4607 19.9451 22 18.0271 22H16.103C15.4343 21.9845 14.9003 21.4432 14.9005 20.7809V17.7047C14.9005 16.9209 14.2587 16.2856 13.4671 16.2856H10.581C9.79312 16.2908 9.1572 16.9246 9.15722 17.7047V20.7714H9.13797ZM7.75722 17.7047C7.75722 17.7047 7.75722 17.7047 7.75722 17.7047C7.7572 16.142 9.02743 14.8959 10.5717 14.8856L10.581 14.8856V14.8856H13.4671C15.0186 14.8856 16.3005 16.1345 16.3005 17.7047V20.6H18.0271C19.1852 20.6 20.1 19.6742 20.1 18.5618V9.84947C20.0934 9.53799 19.9448 9.24158 19.6882 9.04567C19.6805 9.03972 19.6727 9.03369 19.6651 9.02758L13.0881 3.78245C13.0876 3.7821 13.0872 3.78175 13.0868 3.78141C12.4444 3.27327 11.5287 3.27287 10.8859 3.78019L4.33824 9.03446C4.32812 9.04258 4.31788 9.05056 4.30754 9.0584C4.05209 9.25197 3.90473 9.54663 3.9 9.85576V18.5618C3.9 19.6742 4.81477 20.6 5.97291 20.6H7.75722V17.7047ZM7.75722 20.6887V20.7714H7.73797C7.73797 20.7399 7.74517 20.7122 7.75722 20.6887Z" fill="#9E9E9E"/>
</g>
</svg>
