<svg width="32" height="32" viewBox="0 0 32 32" fill="none" xmlns="http://www.w3.org/2000/svg">
<g id="Ic_location">
<path id="Vector" d="M16 4C11.0208 4 7 7.87511 7 12.674C7 14.3472 7.55459 15.9449 8.32619 17.2578L14.1916 27.0414C14.5593 27.6805 15.3008 28 16 28C16.6993 28 17.4046 27.6805 17.8085 27.0414L23.6739 17.2636C24.4515 15.9506 25 14.3819 25 12.6797C25 7.88092 20.9793 4 16 4ZM16 15.2361C14.1916 15.2361 12.7147 13.8127 12.7147 12.0698C12.7147 10.3268 14.1916 8.90344 16 8.90344C17.8085 8.90344 19.2854 10.3268 19.2854 12.0698C19.2854 13.8185 17.8085 15.2361 16 15.2361Z" fill="#57704F"/>
</g>
</svg>
