<svg width="24" height="24" viewBox="0 0 24 24" fill="none" xmlns="http://www.w3.org/2000/svg">
<g id="Ic_next">
<g id="Vector">
<path d="M17.0167 15.0811C16.8453 15.0811 16.6739 15.0171 16.5386 14.8799C16.277 14.6148 16.277 14.1759 16.5386 13.9108L18.3697 12.0548L16.5386 10.1988C16.277 9.93366 16.277 9.4948 16.5386 9.22966C16.8002 8.96452 17.2332 8.96452 17.4947 9.22966L19.8038 11.5702C20.0654 11.8354 20.0654 12.2742 19.8038 12.5394L17.4947 14.8799C17.3594 15.0171 17.1881 15.0811 17.0167 15.0811Z" fill="#C7B8B1"/>
<path d="M19.2616 12.7406H10.0884C9.7186 12.7406 9.41193 12.4298 9.41193 12.0549C9.41193 11.6801 9.7186 11.3692 10.0884 11.3692H19.2616C19.6315 11.3692 19.9381 11.6801 19.9381 12.0549C19.9381 12.4298 19.6315 12.7406 19.2616 12.7406Z" fill="#C7B8B1"/>
<path d="M11.8924 20C7.24716 20 4 16.7086 4 12C4 7.29143 7.24716 4 11.8924 4C12.2622 4 12.5689 4.31086 12.5689 4.68571C12.5689 5.06057 12.2622 5.37143 11.8924 5.37143C8.04091 5.37143 5.35298 8.096 5.35298 12C5.35298 15.904 8.04091 18.6286 11.8924 18.6286C12.2622 18.6286 12.5689 18.9394 12.5689 19.3143C12.5689 19.6891 12.2622 20 11.8924 20Z" fill="#C7B8B1"/>
</g>
</g>
</svg>
