<svg width="24" height="24" viewBox="0 0 24 24" fill="none" xmlns="http://www.w3.org/2000/svg">
<g id="Ic_paypal">
<g id="Group">
<path id="Vector" d="M20.0441 6.10822C20.3274 4.23246 20.0441 2.98196 19.0524 1.82766C17.9663 0.529058 15.983 0 13.433 0H6.11349C5.59405 0 5.16904 0.384769 5.0746 0.913828L2.00515 20.6333C1.95793 21.018 2.24126 21.3547 2.61904 21.3547H7.15238L6.82183 23.3747C6.7746 23.7114 7.01072 24 7.38849 24H11.2135C11.6857 24 12.0635 23.6633 12.1107 23.2305L12.9135 18.1323C12.9607 17.6994 13.3857 17.3627 13.8107 17.3627H14.3774C18.0607 17.3627 20.9885 15.8236 21.8385 11.3988C22.1691 9.57114 22.0274 7.98397 21.083 6.92585C20.7996 6.58918 20.4691 6.3487 20.0441 6.10822Z" fill="#009CDE"/>
<path id="Vector_2" d="M20.0441 6.10822C20.3274 4.23246 20.0441 2.98196 19.0524 1.82766C17.9663 0.529058 15.983 0 13.433 0H6.11349C5.59405 0 5.16904 0.384769 5.0746 0.913828L2.00515 20.6333C1.95793 21.018 2.24126 21.3547 2.61904 21.3547H7.15238L8.23849 14.2365C8.33294 13.7074 8.75794 13.3226 9.27739 13.3226H11.4496C15.6996 13.3226 19.0052 11.5912 19.9496 6.49299C19.9969 6.39679 19.9969 6.2525 20.0441 6.10822Z" fill="#012169"/>
<path id="Vector_3" d="M9.5135 6.15631C9.56072 5.81964 9.98572 5.38677 10.4107 5.38677H16.1718C16.833 5.38677 17.4941 5.43487 18.0607 5.53106C18.5802 5.62725 19.5246 5.86774 19.9969 6.15631C20.2802 4.28056 19.9969 3.03006 19.0052 1.87575C17.9663 0.529058 15.983 0 13.433 0H6.11349C5.59405 0 5.16904 0.384769 5.0746 0.913828L2.00515 20.6333C1.95793 21.018 2.24126 21.3547 2.61904 21.3547H7.15238L9.5135 6.15631Z" fill="#003087"/>
</g>
</g>
</svg>
