<svg width="24" height="24" viewBox="0 0 24 24" fill="none" xmlns="http://www.w3.org/2000/svg">
<g id="Ic_Profile">
<g id="Vector">
<path d="M11.9999 12.6977C8.94525 12.6977 6.45917 10.2977 6.45917 7.34884C6.45917 4.4 8.94525 2 11.9999 2C15.0545 2 17.5405 4.4 17.5405 7.34884C17.5405 10.2977 15.0545 12.6977 11.9999 12.6977ZM11.9999 3.39535C9.74503 3.39535 7.90456 5.17209 7.90456 7.34884C7.90456 9.52558 9.74503 11.3023 11.9999 11.3023C14.2547 11.3023 16.0951 9.52558 16.0951 7.34884C16.0951 5.17209 14.2547 3.39535 11.9999 3.39535Z" fill="#959B95"/>
<path d="M20.2773 22C19.8822 22 19.5546 21.6837 19.5546 21.3023C19.5546 18.093 16.1627 15.4884 12 15.4884C7.83726 15.4884 4.4454 18.093 4.4454 21.3023C4.4454 21.6837 4.11777 22 3.7227 22C3.32762 22 3 21.6837 3 21.3023C3 17.3302 7.03747 14.093 12 14.093C16.9625 14.093 21 17.3302 21 21.3023C21 21.6837 20.6724 22 20.2773 22Z" fill="#959B95"/>
</g>
</g>
</svg>
