<svg width="24" height="24" viewBox="0 0 24 24" fill="none" xmlns="http://www.w3.org/2000/svg">
<g id="Ic_Profile_filled">
<g id="Group">
<g id="Vector">
<path d="M11.9999 12.6977C8.94525 12.6977 6.45917 10.2977 6.45917 7.34884C6.45917 4.4 8.94525 2 11.9999 2C15.0545 2 17.5405 4.4 17.5405 7.34884C17.5405 10.2977 15.0545 12.6977 11.9999 12.6977Z" fill="#57704F"/>
<path d="M20.2773 22C19.8822 22 19.5 22 19.5 22C19.5 22 16.1627 22 12 22C7.83726 22 4.5 22 4.5 22C4.5 22 4.11777 22 3.7227 22C3.32762 22 3 21.6837 3 21.3023C3 17.3302 7.03747 14.093 12 14.093C16.9625 14.093 21 17.3302 21 21.3023C21 21.6837 20.6724 22 20.2773 22Z" fill="#57704F"/>
</g>
</g>
</g>
</svg>
