<svg width="24" height="24" viewBox="0 0 24 24" fill="none" xmlns="http://www.w3.org/2000/svg">
<g id="Ic_ransfer">
<g id="Group">
<g id="Group_2">
<path id="Vector (Stroke)" opacity="0.4" fill-rule="evenodd" clip-rule="evenodd" d="M22.2328 14.3027C22.6567 14.3027 23.0003 14.6463 23.0003 15.0702C23.0003 19.4541 19.4538 23.0005 15.0699 23.0005C14.7935 23.0005 14.5383 22.8518 14.4021 22.6112C14.2659 22.3706 14.2696 22.0753 14.4119 21.8382L15.4863 20.0475C15.7043 19.684 16.1758 19.5662 16.5392 19.7843C16.9027 20.0023 17.0205 20.4737 16.8024 20.8372L16.5248 21.2999C19.3584 20.6425 21.4654 18.1058 21.4654 15.0702C21.4654 14.6463 21.809 14.3027 22.2328 14.3027Z" fill="#57704F"/>
<path id="Vector (Stroke)_2" opacity="0.4" fill-rule="evenodd" clip-rule="evenodd" d="M7.47545 2.70061C4.64192 3.35798 2.5349 5.89472 2.5349 8.93033C2.5349 9.35418 2.1913 9.69778 1.76745 9.69778C1.3436 9.69778 1 9.35418 1 8.93033C1 4.54643 4.54643 1 8.93033 1C9.20682 1 9.46194 1.14873 9.59817 1.38933C9.7344 1.62993 9.73067 1.92521 9.58842 2.1623L8.514 3.95302C8.29593 4.31647 7.82452 4.43433 7.46107 4.21626C7.09761 3.99819 6.97976 3.52678 7.19783 3.16332L7.47545 2.70061Z" fill="#57704F"/>
</g>
<path id="Vector" opacity="0.4" d="M12.0003 15.7863V16.4105H1.76758V15.7863C1.76758 13.9854 2.21782 13.5352 4.03924 13.5352H9.72861C11.55 13.5352 12.0003 13.9854 12.0003 15.7863Z" fill="#57704F"/>
<path id="Vector_2" d="M1.76758 16.4102V17.9451V19.9814C1.76758 21.7823 2.21782 22.2326 4.03924 22.2326H9.72861C11.55 22.2326 12.0003 21.7823 12.0003 19.9814V17.9451V16.4102H1.76758Z" fill="#57704F"/>
<path id="Vector_3" opacity="0.4" d="M22.2327 4.01877V4.64296H12V4.01877C12 2.21782 12.4502 1.76758 14.2717 1.76758H19.961C21.7824 1.76758 22.2327 2.21782 22.2327 4.01877Z" fill="#57704F"/>
<path id="Vector_4" d="M12.0002 4.64258V6.17748V8.21379C12.0002 10.0147 12.4505 10.465 14.2719 10.465H19.9613C21.7827 10.465 22.2329 10.0147 22.2329 8.21379V6.17748V4.64258H12.0002Z" fill="#57704F"/>
</g>
</g>
</svg>
