<svg width="24" height="24" viewBox="0 0 24 24" fill="none" xmlns="http://www.w3.org/2000/svg">
<g id="Ic_Shopping_bag_filled">
<g id="Vector">
<path d="M19.24 5.57859H18.84L15.46 2.19859C15.19 1.92859 14.75 1.92859 14.47 2.19859C14.2 2.46859 14.2 2.90859 14.47 3.18859L16.86 5.57859H7.14L9.53 3.18859C9.8 2.91859 9.8 2.47859 9.53 2.19859C9.26 1.92859 8.82 1.92859 8.54 2.19859L5.17 5.57859H4.77C3.87 5.57859 2 5.57859 2 8.13859C2 9.10859 2.2 9.74859 2.62 10.1686C2.86 10.4186 3.15 10.5486 3.46 10.6186C3.75 10.6886 4.06 10.6986 4.36 10.6986H19.64C19.95 10.6986 20.24 10.6786 20.52 10.6186C21.36 10.4186 22 9.81859 22 8.13859C22 5.57859 20.13 5.57859 19.24 5.57859Z" fill="#57704F"/>
<path d="M19.0506 12H4.87064C4.25064 12 3.78064 12.55 3.88064 13.16L4.72064 18.3C5.00064 20.02 5.75064 22 9.08064 22H14.6906C18.0606 22 18.6606 20.31 19.0206 18.42L20.0306 13.19C20.1506 12.57 19.6806 12 19.0506 12Z" fill="#57704F"/>
</g>
</g>
</svg>
