<svg width="24" height="24" viewBox="0 0 24 24" fill="none" xmlns="http://www.w3.org/2000/svg">
<g id="Ic_&#208;&#161;&#208;&#145;&#208;&#159;" clip-path="url(#clip0_141_2294)">
<g id="Group">
<path id="path66" d="M2 5.22461L4.98759 10.4196V13.5884L2.00349 18.7732L2 5.22461Z" fill="#5B57A2"/>
<path id="path68" d="M13.4717 8.52791L16.2712 6.85872L22.0005 6.85352L13.4717 11.9363V8.52791Z" fill="#D90751"/>
<path id="path70" d="M13.4553 5.19339L13.4711 12.0714L10.4766 10.2814V0L13.4553 5.19339Z" fill="#FAB718"/>
<path id="path72" d="M21.9999 6.85419L16.2704 6.85939L13.4553 5.19339L10.4766 0L21.9999 6.85419Z" fill="#ED6F26"/>
<path id="path74" d="M13.4711 18.8V15.463L10.4766 13.707L10.4782 23.9986L13.4711 18.8Z" fill="#63B22F"/>
<path id="path76" d="M16.2636 17.148L4.98738 10.4196L2 5.22461L21.9878 17.1412L16.2636 17.148Z" fill="#1487C9"/>
<path id="path78" d="M10.4785 24L13.471 18.8014L16.2635 17.1474L21.9877 17.1406L10.4785 24Z" fill="#017F36"/>
<path id="path80" d="M2.00293 18.7731L10.5005 13.7091L7.64362 12.0039L4.98702 13.5883L2.00293 18.7731Z" fill="#984995"/>
</g>
</g>
<defs>
<clipPath id="clip0_141_2294">
<rect width="24" height="24" fill="white"/>
</clipPath>
</defs>
</svg>
