<svg width="32" height="32" viewBox="0 0 32 32" fill="none" xmlns="http://www.w3.org/2000/svg">
<g id="Ic_sale">
<g id="Vector">
<path fill-rule="evenodd" clip-rule="evenodd" d="M14.3123 4.3826C15.3796 3.87247 16.6204 3.87247 17.6877 4.3826C18.1513 4.60421 18.5761 4.96661 19.1645 5.46841C19.195 5.49446 19.2261 5.52088 19.2575 5.54768C19.5431 5.79114 19.6331 5.866 19.7242 5.92702C19.9558 6.08223 20.2158 6.18994 20.4893 6.24394C20.5968 6.26517 20.7133 6.27585 21.0875 6.30572C21.1287 6.309 21.1693 6.31222 21.2093 6.31539C21.9801 6.37655 22.5367 6.42072 23.0213 6.59189C24.1368 6.98586 25.0141 7.86322 25.4081 8.97862C25.5792 9.4632 25.6234 10.0199 25.6846 10.7907C25.6878 10.8307 25.6909 10.8713 25.6943 10.9125C25.7242 11.2866 25.7349 11.4032 25.7561 11.5107C25.81 11.7842 25.9177 12.0443 26.0729 12.2758C26.134 12.3669 26.2089 12.4568 26.4523 12.7425C26.4791 12.774 26.5055 12.805 26.5315 12.8355C27.0334 13.4238 27.3958 13.8486 27.6174 14.3123C28.1275 15.3796 28.1275 16.6204 27.6174 17.6877C27.3958 18.1513 27.0334 18.5761 26.5315 19.1645C26.5055 19.195 26.4791 19.2259 26.4523 19.2575C26.2089 19.5431 26.134 19.6331 26.0729 19.7242C25.9177 19.9558 25.81 20.2158 25.7561 20.4893C25.7349 20.5968 25.7242 20.7133 25.6943 21.0875C25.6909 21.1287 25.6878 21.1693 25.6846 21.2093C25.6234 21.9801 25.5792 22.5367 25.4081 23.0213C25.0141 24.1368 24.1368 25.0141 23.0213 25.4081C22.5367 25.5792 21.9801 25.6234 21.2093 25.6846C21.1693 25.6878 21.1287 25.6909 21.0875 25.6943C20.7133 25.7242 20.5968 25.7349 20.4893 25.7561C20.2158 25.81 19.9558 25.9177 19.7242 26.0729C19.6331 26.134 19.5431 26.2089 19.2575 26.4523C19.2259 26.4791 19.195 26.5055 19.1645 26.5315C18.5761 27.0334 18.1513 27.3958 17.6877 27.6174C16.6204 28.1275 15.3796 28.1275 14.3123 27.6174C13.8486 27.3958 13.4238 27.0334 12.8355 26.5315C12.8049 26.5055 12.774 26.4791 12.7425 26.4523C12.4568 26.2089 12.3669 26.134 12.2758 26.0729C12.0442 25.9177 11.7842 25.81 11.5107 25.7561C11.4032 25.7349 11.2866 25.7242 10.9125 25.6943C10.8713 25.6909 10.8307 25.6878 10.7907 25.6846C10.0199 25.6234 9.4632 25.5792 8.97862 25.4081C7.86322 25.0141 6.98586 24.1368 6.59189 23.0213C6.42072 22.5367 6.37655 21.9801 6.31539 21.2093C6.31222 21.1693 6.309 21.1287 6.30572 21.0875C6.27585 20.7133 6.26517 20.5968 6.24394 20.4893C6.18994 20.2158 6.08223 19.9558 5.92702 19.7242C5.866 19.6331 5.79114 19.5431 5.54768 19.2575C5.52088 19.2261 5.49446 19.195 5.46842 19.1645C4.96661 18.5763 4.60421 18.1513 4.3826 17.6877C3.87247 16.6204 3.87247 15.3796 4.3826 14.3123C4.60421 13.8486 4.96661 13.4238 5.4684 12.8355C5.49444 12.805 5.52087 12.774 5.54768 12.7425C5.79114 12.4568 5.866 12.3669 5.92702 12.2758C6.08223 12.0443 6.18994 11.7842 6.24394 11.5107C6.26517 11.4032 6.27585 11.2866 6.30572 10.9125C6.309 10.8713 6.31222 10.8307 6.31539 10.7907C6.37655 10.0199 6.42072 9.4632 6.59189 8.97862C6.98586 7.86322 7.86322 6.98586 8.97862 6.59189C9.4632 6.42072 10.0199 6.37655 10.7907 6.31539C10.8307 6.31222 10.8713 6.309 10.9125 6.30572C11.2866 6.27585 11.4032 6.26517 11.5107 6.24394C11.7842 6.18994 12.0442 6.08223 12.2758 5.92702C12.3669 5.866 12.4568 5.79114 12.7425 5.54768C12.774 5.52087 12.8049 5.49446 12.8355 5.46841C13.4238 4.96661 13.8486 4.60421 14.3123 4.3826Z" fill="white"/>
<path fill-rule="evenodd" clip-rule="evenodd" d="M20.2511 11.7484C20.6038 12.1011 20.6038 12.6729 20.2511 13.0256L13.0261 20.2506C12.6734 20.6033 12.1015 20.6033 11.7488 20.2506C11.3961 19.898 11.3961 19.3262 11.7488 18.9735L18.9739 11.7484C19.3266 11.3957 19.8984 11.3957 20.2511 11.7484Z" fill="#C7B8B1"/>
<path d="M20.2147 19.01C20.2147 19.6751 19.6755 20.2142 19.0105 20.2142C18.3454 20.2142 17.8063 19.6751 17.8063 19.01C17.8063 18.345 18.3454 17.8058 19.0105 17.8058C19.6755 17.8058 20.2147 18.345 20.2147 19.01Z" fill="#C7B8B1"/>
<path d="M14.1937 12.9895C14.1937 13.6545 13.6545 14.1937 12.9895 14.1937C12.3245 14.1937 11.7853 13.6545 11.7853 12.9895C11.7853 12.3245 12.3245 11.7853 12.9895 11.7853C13.6545 11.7853 14.1937 12.3245 14.1937 12.9895Z" fill="#C7B8B1"/>
</g>
</g>
</svg>
