<svg width="24" height="24" viewBox="0 0 24 24" fill="none" xmlns="http://www.w3.org/2000/svg">
<g id="Ic_Shopping_bag">
<g id="Vector">
<path d="M5.66633 6.77031C5.48957 6.77031 5.3035 6.69588 5.17325 6.56563C4.90346 6.29584 4.90346 5.84927 5.17325 5.57948L8.55038 2.20235C8.82018 1.93255 9.26674 1.93255 9.53654 2.20235C9.80634 2.47215 9.80634 2.91871 9.53654 3.18851L6.15941 6.56563C6.01986 6.69588 5.8431 6.77031 5.66633 6.77031Z" fill="#959B95"/>
<path d="M18.3359 6.77031C18.1592 6.77031 17.9824 6.70519 17.8429 6.56563L14.4657 3.18851C14.1959 2.91871 14.1959 2.47215 14.4657 2.20235C14.7355 1.93255 15.1821 1.93255 15.4519 2.20235L18.829 5.57948C19.0988 5.84927 19.0988 6.29584 18.829 6.56563C18.6988 6.69588 18.5127 6.77031 18.3359 6.77031Z" fill="#959B95"/>
<path d="M19.6392 10.6965C19.5741 10.6965 19.509 10.6965 19.4438 10.6965H4.55843C3.90719 10.7058 3.16292 10.7058 2.62333 10.1662C2.19537 9.74754 2 9.0963 2 8.13805C2 5.57962 3.86998 5.57962 4.7631 5.57962H19.2392C20.1323 5.57962 22.0023 5.57962 22.0023 8.13805C22.0023 9.1056 21.8069 9.74754 21.3789 10.1662C20.8952 10.65 20.2439 10.6965 19.6392 10.6965ZM19.4531 9.30098C19.8718 9.31028 20.2625 9.31028 20.3928 9.18003C20.4579 9.11491 20.5975 8.89163 20.5975 8.13805C20.5975 7.08677 20.337 6.97513 19.2299 6.97513H4.7631C3.656 6.97513 3.39551 7.08677 3.39551 8.13805C3.39551 8.89163 3.54436 9.11491 3.60018 9.18003C3.73043 9.30098 4.13047 9.30098 4.53982 9.30098H19.4531Z" fill="#959B95"/>
<path d="M14.6905 22H9.08055C5.74994 22 5.00567 20.0184 4.71727 18.2973L3.40549 10.2498C3.34037 9.86839 3.60086 9.51486 3.9823 9.44974C4.35444 9.38461 4.71727 9.64511 4.78239 10.0265L6.09417 18.0647C6.36397 19.7114 6.92217 20.6045 9.08055 20.6045H14.6905C17.0815 20.6045 17.3513 19.7672 17.6583 18.1484L19.2212 10.0079C19.2957 9.6265 19.6585 9.37531 20.0399 9.45904C20.4214 9.53347 20.6633 9.8963 20.5888 10.2777L19.0259 18.4182C18.663 20.3068 18.0583 22 14.6905 22Z" fill="#959B95"/>
</g>
</g>
</svg>
