<svg width="24" height="24" viewBox="0 0 24 24" fill="none" xmlns="http://www.w3.org/2000/svg">
<g id="Ic_share">
<g id="Group">
<g id="Vector">
<path d="M12 22C6.48372 22 2 17.5163 2 12C2 6.48372 6.48372 2 12 2C12.3814 2 12.6977 2.31628 12.6977 2.69767C12.6977 3.07907 12.3814 3.39535 12 3.39535C7.25581 3.39535 3.39535 7.25581 3.39535 12C3.39535 16.7442 7.25581 20.6047 12 20.6047C16.7442 20.6047 20.6047 16.7442 20.6047 12C20.6047 11.6186 20.9209 11.3023 21.3023 11.3023C21.6837 11.3023 22 11.6186 22 12C22 17.5163 17.5163 22 12 22Z" fill="#041304"/>
<path d="M12.9302 11.7674C12.7535 11.7674 12.5767 11.7023 12.4372 11.5628C12.1674 11.293 12.1674 10.8465 12.4372 10.5767L20.0651 2.94884C20.3349 2.67907 20.7814 2.67907 21.0512 2.94884C21.3209 3.2186 21.3209 3.66512 21.0512 3.93488L13.4233 11.5628C13.2837 11.7023 13.107 11.7674 12.9302 11.7674Z" fill="#041304"/>
<path d="M21.3023 7.88837C20.9209 7.88837 20.6047 7.57209 20.6047 7.1907V3.39535H16.8093C16.4279 3.39535 16.1116 3.07907 16.1116 2.69767C16.1116 2.31628 16.4279 2 16.8093 2H21.3023C21.6837 2 22 2.31628 22 2.69767V7.1907C22 7.57209 21.6837 7.88837 21.3023 7.88837Z" fill="#041304"/>
</g>
</g>
</g>
</svg>
