<svg width="24" height="24" viewBox="0 0 24 24" fill="none" xmlns="http://www.w3.org/2000/svg">
<g id="Ic_wallet">
<g id="Group">
<path id="Vector" opacity="0.4" d="M18.0425 13.6826C17.5819 14.1347 17.3187 14.7852 17.3845 15.4799C17.4832 16.6708 18.5689 17.5419 19.7533 17.5419H21.837V18.8541C21.837 21.1366 19.9836 23.0001 17.7135 23.0001H5.12354C2.8534 23.0001 1 21.1366 1 18.8541V11.4331C1 9.15063 2.8534 7.28711 5.12354 7.28711H17.7135C19.9836 7.28711 21.837 9.15063 21.837 11.4331V13.021H19.6217C19.0076 13.021 18.4483 13.2636 18.0425 13.6826Z" fill="#57704F"/>
<path id="Vector_2" d="M14.5441 3.09596V7.28608H5.12354C2.8534 7.28608 1 9.1496 1 11.4321V7.38535C1 6.07317 1.80058 4.9043 3.0179 4.44118L11.7256 1.13318C13.0855 0.625951 14.5441 1.62941 14.5441 3.09596Z" fill="#57704F"/>
<path id="Vector_3" d="M22.9991 14.1442V16.4158C22.9991 17.0222 22.5165 17.5184 21.9024 17.5404H19.7529C18.5684 17.5404 17.4827 16.6693 17.384 15.4785C17.3182 14.7838 17.5814 14.1332 18.042 13.6811C18.4478 13.2621 19.0071 13.0195 19.6213 13.0195H21.9024C22.5165 13.0416 22.9991 13.5377 22.9991 14.1442Z" fill="#57704F"/>
<g id="Group_2">
<path id="Vector_4" d="M13.6106 12.8005H5.93384C5.4842 12.8005 5.11133 12.4256 5.11133 11.9735C5.11133 11.5214 5.4842 11.1465 5.93384 11.1465H13.6106C14.0603 11.1465 14.4332 11.5214 14.4332 11.9735C14.4332 12.4256 14.0603 12.8005 13.6106 12.8005Z" fill="#57704F"/>
</g>
</g>
</g>
</svg>
